<svg width="155" height="46" viewBox="0 0 155 46" fill="none" xmlns="http://www.w3.org/2000/svg">
<path d="M129.85 17.0174C129.85 14.7805 128.036 12.9671 125.799 12.9671C123.562 12.9671 121.749 14.7805 121.749 17.0174C121.749 19.2543 123.562 21.0677 125.799 21.0677C128.036 21.0677 129.85 19.2543 129.85 17.0174Z" fill="white"/>
<path d="M137.953 25.1142C140.189 25.1142 142.003 26.9273 142.003 29.1645C142.003 31.3991 140.189 33.2141 137.953 33.2141C135.716 33.2141 133.902 31.3991 133.902 29.1645C133.902 26.928 135.716 25.1142 137.953 25.1142Z" fill="white"/>
<path d="M113.647 25.1142C115.883 25.1142 117.696 26.9273 117.696 29.1645C117.696 31.3991 115.883 33.2141 113.647 33.2141C111.41 33.2141 109.596 31.3991 109.596 29.1645C109.597 26.928 111.41 25.1142 113.647 25.1142Z" fill="white"/>
<path d="M150.098 37.2669C152.336 37.2669 154.149 39.08 154.149 41.3172C154.149 43.5518 152.336 45.3668 150.098 45.3668C147.862 45.3668 146.048 43.5518 146.048 41.3172C146.049 39.08 147.862 37.2669 150.098 37.2669Z" fill="white"/>
<path d="M101.5 37.2669C103.737 37.2669 105.55 39.08 105.55 41.3172C105.55 43.5518 103.737 45.3668 101.5 45.3668C99.2637 45.3668 97.45 43.5518 97.45 41.3172C97.45 39.08 99.2631 37.2669 101.5 37.2669Z" fill="white"/>
<path d="M129.85 4.86471C129.85 2.62781 128.036 0.814438 125.799 0.814438C123.562 0.814438 121.749 2.62781 121.749 4.86471C121.749 7.10161 123.562 8.91498 125.799 8.91498C128.036 8.91498 129.85 7.10161 129.85 4.86471Z" fill="white"/>
<path d="M137.953 12.9671C140.189 12.9671 142.003 14.7803 142.003 17.0174C142.003 19.2514 140.189 21.0677 137.953 21.0677C135.716 21.0677 133.902 19.2514 133.902 17.0174C133.902 14.7803 135.716 12.9671 137.953 12.9671Z" fill="white"/>
<path d="M113.647 12.9671C115.883 12.9671 117.696 14.7803 117.696 17.0174C117.696 19.2514 115.883 21.0677 113.647 21.0677C111.41 21.0677 109.596 19.2514 109.596 17.0174C109.597 14.7803 111.41 12.9671 113.647 12.9671Z" fill="white"/>
<path d="M150.098 25.1142C152.336 25.1142 154.149 26.9273 154.149 29.1645C154.149 31.3991 152.336 33.2141 150.098 33.2141C147.862 33.2141 146.048 31.3991 146.048 29.1645C146.049 26.928 147.862 25.1142 150.098 25.1142Z" fill="white"/>
<path d="M101.5 25.1142C103.737 25.1142 105.55 26.9273 105.55 29.1645C105.55 31.3991 103.737 33.2141 101.5 33.2141C99.2631 33.2141 97.45 31.3991 97.45 29.1645C97.45 26.928 99.2631 25.1142 101.5 25.1142Z" fill="white"/>
<path d="M81.0897 17.0174C81.0897 14.7805 79.2763 12.9671 77.0394 12.9671C74.8025 12.9671 72.9891 14.7805 72.9891 17.0174C72.9891 19.2543 74.8025 21.0677 77.0394 21.0677C79.2763 21.0677 81.0897 19.2543 81.0897 17.0174Z" fill="white"/>
<path d="M89.1927 25.1142C91.4292 25.1142 93.243 26.9273 93.243 29.1645C93.243 31.3991 91.4292 33.2141 89.1927 33.2141C86.9556 33.2141 85.1418 31.3991 85.1418 29.1645C85.1418 26.928 86.9556 25.1142 89.1927 25.1142Z" fill="white"/>
<path d="M64.8867 25.1142C67.1232 25.1142 68.9363 26.9273 68.9363 29.1645C68.9363 31.3991 67.1232 33.2141 64.8867 33.2141C62.6502 33.2141 60.8364 31.3991 60.8364 29.1645C60.8371 26.928 62.6502 25.1142 64.8867 25.1142Z" fill="white"/>
<path d="M101.338 37.2669C103.576 37.2669 105.389 39.08 105.389 41.3172C105.389 43.5518 103.576 45.3668 101.338 45.3668C99.102 45.3668 97.2882 43.5518 97.2882 41.3172C97.2888 39.08 99.102 37.2669 101.338 37.2669Z" fill="white"/>
<path d="M52.7403 37.2669C54.9768 37.2669 56.7899 39.08 56.7899 41.3172C56.7899 43.5518 54.9768 45.3668 52.7403 45.3668C50.5038 45.3668 48.69 43.5518 48.69 41.3172C48.69 39.08 50.5031 37.2669 52.7403 37.2669Z" fill="white"/>
<path d="M81.0897 4.86471C81.0897 2.62781 79.2763 0.814438 77.0394 0.814438C74.8025 0.814438 72.9891 2.62781 72.9891 4.86471C72.9891 7.10161 74.8025 8.91498 77.0394 8.91498C79.2763 8.91498 81.0897 7.10161 81.0897 4.86471Z" fill="white"/>
<path d="M89.1927 12.9671C91.4292 12.9671 93.243 14.7803 93.243 17.0174C93.243 19.2514 91.4292 21.0677 89.1927 21.0677C86.9556 21.0677 85.1418 19.2514 85.1418 17.0174C85.1418 14.7803 86.9556 12.9671 89.1927 12.9671Z" fill="white"/>
<path d="M64.8867 12.9671C67.1232 12.9671 68.9363 14.7803 68.9363 17.0174C68.9363 19.2514 67.1232 21.0677 64.8867 21.0677C62.6502 21.0677 60.8364 19.2514 60.8364 17.0174C60.8371 14.7803 62.6502 12.9671 64.8867 12.9671Z" fill="white"/>
<path d="M101.338 25.1142C103.576 25.1142 105.389 26.9273 105.389 29.1645C105.389 31.3991 103.576 33.2141 101.338 33.2141C99.102 33.2141 97.2882 31.3991 97.2882 29.1645C97.2888 26.928 99.102 25.1142 101.338 25.1142Z" fill="white"/>
<path d="M52.7403 25.1142C54.9768 25.1142 56.7899 26.9273 56.7899 29.1645C56.7899 31.3991 54.9768 33.2141 52.7403 33.2141C50.5031 33.2141 48.69 31.3991 48.69 29.1645C48.69 26.928 50.5031 25.1142 52.7403 25.1142Z" fill="white"/>
<path d="M32.3997 17.0174C32.3997 14.7805 30.5863 12.9671 28.3494 12.9671C26.1125 12.9671 24.2991 14.7805 24.2991 17.0174C24.2991 19.2543 26.1125 21.0677 28.3494 21.0677C30.5863 21.0677 32.3997 19.2543 32.3997 17.0174Z" fill="white"/>
<path d="M40.5027 25.1142C42.7392 25.1142 44.553 26.9273 44.553 29.1645C44.553 31.3991 42.7392 33.2141 40.5027 33.2141C38.2656 33.2141 36.4518 31.3991 36.4518 29.1645C36.4518 26.928 38.2656 25.1142 40.5027 25.1142Z" fill="white"/>
<path d="M16.1967 25.1142C18.4332 25.1142 20.2463 26.9273 20.2463 29.1645C20.2463 31.3991 18.4332 33.2141 16.1967 33.2141C13.9602 33.2141 12.1464 31.3991 12.1464 29.1645C12.1471 26.928 13.9602 25.1142 16.1967 25.1142Z" fill="white"/>
<path d="M52.6485 37.2669C54.8856 37.2669 56.6987 39.08 56.6987 41.3172C56.6987 43.5518 54.8856 45.3668 52.6485 45.3668C50.412 45.3668 48.5982 43.5518 48.5982 41.3172C48.5988 39.08 50.412 37.2669 52.6485 37.2669Z" fill="white"/>
<path d="M4.05027 37.2669C6.28677 37.2669 8.09991 39.08 8.09991 41.3172C8.09991 43.5518 6.28677 45.3668 4.05027 45.3668C1.81377 45.3668 0 43.5518 0 41.3172C0 39.08 1.81314 37.2669 4.05027 37.2669Z" fill="white"/>
<path d="M32.3997 4.86471C32.3997 2.62781 30.5863 0.814438 28.3494 0.814438C26.1125 0.814438 24.2991 2.62781 24.2991 4.86471C24.2991 7.10161 26.1125 8.91498 28.3494 8.91498C30.5863 8.91498 32.3997 7.10161 32.3997 4.86471Z" fill="white"/>
<path d="M40.5027 12.9671C42.7392 12.9671 44.553 14.7803 44.553 17.0174C44.553 19.2514 42.7392 21.0677 40.5027 21.0677C38.2656 21.0677 36.4518 19.2514 36.4518 17.0174C36.4518 14.7803 38.2656 12.9671 40.5027 12.9671Z" fill="white"/>
<path d="M16.1967 12.9671C18.4332 12.9671 20.2463 14.7803 20.2463 17.0174C20.2463 19.2514 18.4332 21.0677 16.1967 21.0677C13.9602 21.0677 12.1464 19.2514 12.1464 17.0174C12.1471 14.7803 13.9602 12.9671 16.1967 12.9671Z" fill="white"/>
<path d="M52.6485 25.1142C54.8856 25.1142 56.6987 26.9273 56.6987 29.1645C56.6987 31.3991 54.8856 33.2141 52.6485 33.2141C50.412 33.2141 48.5982 31.3991 48.5982 29.1645C48.5988 26.928 50.412 25.1142 52.6485 25.1142Z" fill="white"/>
<path d="M4.05027 25.1142C6.28677 25.1142 8.09991 26.9273 8.09991 29.1645C8.09991 31.3991 6.28677 33.2141 4.05027 33.2141C1.81314 33.2141 0 31.3991 0 29.1645C0 26.928 1.81314 25.1142 4.05027 25.1142Z" fill="white"/>
</svg>
