<svg width="155" height="45" viewBox="0 0 155 45" fill="none" xmlns="http://www.w3.org/2000/svg">
<path d="M129.85 16.203C129.85 13.9661 128.036 12.1527 125.799 12.1527C123.562 12.1527 121.749 13.9661 121.749 16.203C121.749 18.4399 123.562 20.2532 125.799 20.2532C128.036 20.2532 129.85 18.4399 129.85 16.203Z" fill="#588F27"/>
<path d="M137.953 24.2997C140.189 24.2997 142.003 26.1129 142.003 28.35C142.003 30.5846 140.189 32.3997 137.953 32.3997C135.716 32.3997 133.902 30.5846 133.902 28.35C133.902 26.1135 135.716 24.2997 137.953 24.2997Z" fill="#588F27"/>
<path d="M113.647 24.2997C115.883 24.2997 117.696 26.1129 117.696 28.35C117.696 30.5846 115.883 32.3997 113.647 32.3997C111.41 32.3997 109.596 30.5846 109.596 28.35C109.597 26.1135 111.41 24.2997 113.647 24.2997Z" fill="#588F27"/>
<path d="M150.098 36.4524C152.336 36.4524 154.149 38.2656 154.149 40.5027C154.149 42.7373 152.336 44.5523 150.098 44.5523C147.862 44.5523 146.048 42.7373 146.048 40.5027C146.049 38.2656 147.862 36.4524 150.098 36.4524Z" fill="#588F27"/>
<path d="M101.5 36.4524C103.737 36.4524 105.55 38.2656 105.55 40.5027C105.55 42.7373 103.737 44.5523 101.5 44.5523C99.2637 44.5523 97.45 42.7373 97.45 40.5027C97.45 38.2656 99.2631 36.4524 101.5 36.4524Z" fill="#588F27"/>
<path d="M129.85 4.05025C129.85 1.81335 128.036 -1.52588e-05 125.799 -1.52588e-05C123.562 -1.52588e-05 121.749 1.81335 121.749 4.05025C121.749 6.28716 123.562 8.10052 125.799 8.10052C128.036 8.10052 129.85 6.28716 129.85 4.05025Z" fill="#588F27"/>
<path d="M137.953 12.1527C140.189 12.1527 142.003 13.9658 142.003 16.203C142.003 18.4369 140.189 20.2532 137.953 20.2532C135.716 20.2532 133.902 18.4369 133.902 16.203C133.902 13.9658 135.716 12.1527 137.953 12.1527Z" fill="#588F27"/>
<path d="M113.647 12.1527C115.883 12.1527 117.696 13.9658 117.696 16.203C117.696 18.4369 115.883 20.2532 113.647 20.2532C111.41 20.2532 109.596 18.4369 109.596 16.203C109.597 13.9658 111.41 12.1527 113.647 12.1527Z" fill="#588F27"/>
<path d="M150.098 24.2997C152.336 24.2997 154.149 26.1129 154.149 28.35C154.149 30.5846 152.336 32.3997 150.098 32.3997C147.862 32.3997 146.048 30.5846 146.048 28.35C146.049 26.1135 147.862 24.2997 150.098 24.2997Z" fill="#588F27"/>
<path d="M101.5 24.2997C103.737 24.2997 105.55 26.1129 105.55 28.35C105.55 30.5846 103.737 32.3997 101.5 32.3997C99.2631 32.3997 97.45 30.5846 97.45 28.35C97.45 26.1135 99.2631 24.2997 101.5 24.2997Z" fill="#588F27"/>
<path d="M81.0897 16.203C81.0897 13.9661 79.2763 12.1527 77.0394 12.1527C74.8025 12.1527 72.9891 13.9661 72.9891 16.203C72.9891 18.4399 74.8025 20.2532 77.0394 20.2532C79.2763 20.2532 81.0897 18.4399 81.0897 16.203Z" fill="#FF5757"/>
<path d="M89.1927 24.2997C91.4292 24.2997 93.243 26.1129 93.243 28.35C93.243 30.5846 91.4292 32.3997 89.1927 32.3997C86.9556 32.3997 85.1418 30.5846 85.1418 28.35C85.1418 26.1135 86.9556 24.2997 89.1927 24.2997Z" fill="#FF5757"/>
<path d="M64.8867 24.2997C67.1232 24.2997 68.9363 26.1129 68.9363 28.35C68.9363 30.5846 67.1232 32.3997 64.8867 32.3997C62.6502 32.3997 60.8364 30.5846 60.8364 28.35C60.8371 26.1135 62.6502 24.2997 64.8867 24.2997Z" fill="#FF5757"/>
<path d="M101.338 36.4524C103.576 36.4524 105.389 38.2656 105.389 40.5027C105.389 42.7373 103.576 44.5523 101.338 44.5523C99.102 44.5523 97.2882 42.7373 97.2882 40.5027C97.2888 38.2656 99.102 36.4524 101.338 36.4524Z" fill="#FF5757"/>
<path d="M52.7403 36.4524C54.9768 36.4524 56.7899 38.2656 56.7899 40.5027C56.7899 42.7373 54.9768 44.5523 52.7403 44.5523C50.5038 44.5523 48.69 42.7373 48.69 40.5027C48.69 38.2656 50.5031 36.4524 52.7403 36.4524Z" fill="#FF5757"/>
<path d="M81.0897 4.05025C81.0897 1.81335 79.2763 -1.52588e-05 77.0394 -1.52588e-05C74.8025 -1.52588e-05 72.9891 1.81335 72.9891 4.05025C72.9891 6.28716 74.8025 8.10052 77.0394 8.10052C79.2763 8.10052 81.0897 6.28716 81.0897 4.05025Z" fill="#FF5757"/>
<path d="M89.1927 12.1527C91.4292 12.1527 93.243 13.9658 93.243 16.203C93.243 18.4369 91.4292 20.2532 89.1927 20.2532C86.9556 20.2532 85.1418 18.4369 85.1418 16.203C85.1418 13.9658 86.9556 12.1527 89.1927 12.1527Z" fill="#FF5757"/>
<path d="M64.8867 12.1527C67.1232 12.1527 68.9363 13.9658 68.9363 16.203C68.9363 18.4369 67.1232 20.2532 64.8867 20.2532C62.6502 20.2532 60.8364 18.4369 60.8364 16.203C60.8371 13.9658 62.6502 12.1527 64.8867 12.1527Z" fill="#FF5757"/>
<path d="M101.338 24.2997C103.576 24.2997 105.389 26.1129 105.389 28.35C105.389 30.5846 103.576 32.3997 101.338 32.3997C99.102 32.3997 97.2882 30.5846 97.2882 28.35C97.2888 26.1135 99.102 24.2997 101.338 24.2997Z" fill="#FF5757"/>
<path d="M52.7403 24.2997C54.9768 24.2997 56.7899 26.1129 56.7899 28.35C56.7899 30.5846 54.9768 32.3997 52.7403 32.3997C50.5031 32.3997 48.69 30.5846 48.69 28.35C48.69 26.1135 50.5031 24.2997 52.7403 24.2997Z" fill="#FF5757"/>
<path d="M32.3997 16.203C32.3997 13.9661 30.5863 12.1527 28.3494 12.1527C26.1125 12.1527 24.2991 13.9661 24.2991 16.203C24.2991 18.4399 26.1125 20.2532 28.3494 20.2532C30.5863 20.2532 32.3997 18.4399 32.3997 16.203Z" fill="#3498DB"/>
<path d="M40.5027 24.2997C42.7392 24.2997 44.553 26.1129 44.553 28.35C44.553 30.5846 42.7392 32.3997 40.5027 32.3997C38.2656 32.3997 36.4518 30.5846 36.4518 28.35C36.4518 26.1135 38.2656 24.2997 40.5027 24.2997Z" fill="#3498DB"/>
<path d="M16.1967 24.2997C18.4332 24.2997 20.2463 26.1129 20.2463 28.35C20.2463 30.5846 18.4332 32.3997 16.1967 32.3997C13.9602 32.3997 12.1464 30.5846 12.1464 28.35C12.1471 26.1135 13.9602 24.2997 16.1967 24.2997Z" fill="#3498DB"/>
<path d="M52.6485 36.4524C54.8856 36.4524 56.6987 38.2656 56.6987 40.5027C56.6987 42.7373 54.8856 44.5523 52.6485 44.5523C50.412 44.5523 48.5982 42.7373 48.5982 40.5027C48.5988 38.2656 50.412 36.4524 52.6485 36.4524Z" fill="#3498DB"/>
<path d="M4.05027 36.4524C6.28677 36.4524 8.09991 38.2656 8.09991 40.5027C8.09991 42.7373 6.28677 44.5523 4.05027 44.5523C1.81377 44.5523 0 42.7373 0 40.5027C0 38.2656 1.81314 36.4524 4.05027 36.4524Z" fill="#3498DB"/>
<path d="M32.3997 4.05025C32.3997 1.81335 30.5863 -1.52588e-05 28.3494 -1.52588e-05C26.1125 -1.52588e-05 24.2991 1.81335 24.2991 4.05025C24.2991 6.28716 26.1125 8.10052 28.3494 8.10052C30.5863 8.10052 32.3997 6.28716 32.3997 4.05025Z" fill="#3498DB"/>
<path d="M40.5027 12.1527C42.7392 12.1527 44.553 13.9658 44.553 16.203C44.553 18.4369 42.7392 20.2532 40.5027 20.2532C38.2656 20.2532 36.4518 18.4369 36.4518 16.203C36.4518 13.9658 38.2656 12.1527 40.5027 12.1527Z" fill="#3498DB"/>
<path d="M16.1967 12.1527C18.4332 12.1527 20.2463 13.9658 20.2463 16.203C20.2463 18.4369 18.4332 20.2532 16.1967 20.2532C13.9602 20.2532 12.1464 18.4369 12.1464 16.203C12.1471 13.9658 13.9602 12.1527 16.1967 12.1527Z" fill="#3498DB"/>
<path d="M52.6485 24.2997C54.8856 24.2997 56.6987 26.1129 56.6987 28.35C56.6987 30.5846 54.8856 32.3997 52.6485 32.3997C50.412 32.3997 48.5982 30.5846 48.5982 28.35C48.5988 26.1135 50.412 24.2997 52.6485 24.2997Z" fill="#3498DB"/>
<path d="M4.05027 24.2997C6.28677 24.2997 8.09991 26.1129 8.09991 28.35C8.09991 30.5846 6.28677 32.3997 4.05027 32.3997C1.81314 32.3997 0 30.5846 0 28.35C0 26.1135 1.81314 24.2997 4.05027 24.2997Z" fill="#3498DB"/>
</svg>
