<svg width="310" height="103" viewBox="0 0 310 103" fill="none" xmlns="http://www.w3.org/2000/svg">
<path d="M207.85 17.0175C207.85 14.7806 206.036 12.9672 203.799 12.9672C201.563 12.9672 199.749 14.7806 199.749 17.0175C199.749 19.2544 201.563 21.0677 203.799 21.0677C206.036 21.0677 207.85 19.2544 207.85 17.0175Z" fill="white"/>
<path d="M215.953 25.1142C218.189 25.1142 220.003 26.9273 220.003 29.1645C220.003 31.3991 218.189 33.2141 215.953 33.2141C213.716 33.2141 211.902 31.3991 211.902 29.1645C211.902 26.928 213.716 25.1142 215.953 25.1142Z" fill="white"/>
<path d="M191.647 25.1142C193.883 25.1142 195.696 26.9273 195.696 29.1645C195.696 31.3991 193.883 33.2141 191.647 33.2141C189.41 33.2141 187.596 31.3991 187.596 29.1645C187.597 26.928 189.41 25.1142 191.647 25.1142Z" fill="white"/>
<path d="M228.098 37.2669C230.336 37.2669 232.149 39.0801 232.149 41.3172C232.149 43.5518 230.336 45.3668 228.098 45.3668C225.862 45.3668 224.048 43.5518 224.048 41.3172C224.049 39.0801 225.862 37.2669 228.098 37.2669Z" fill="white"/>
<path d="M179.5 37.2669C181.737 37.2669 183.55 39.0801 183.55 41.3172C183.55 43.5518 181.737 45.3668 179.5 45.3668C177.264 45.3668 175.45 43.5518 175.45 41.3172C175.45 39.0801 177.263 37.2669 179.5 37.2669Z" fill="white"/>
<path d="M207.85 4.86477C207.85 2.62787 206.036 0.814499 203.799 0.814499C201.563 0.814499 199.749 2.62787 199.749 4.86477C199.749 7.10167 201.563 8.91504 203.799 8.91504C206.036 8.91504 207.85 7.10167 207.85 4.86477Z" fill="white"/>
<path d="M215.953 12.9672C218.189 12.9672 220.003 14.7803 220.003 17.0175C220.003 19.2515 218.189 21.0677 215.953 21.0677C213.716 21.0677 211.902 19.2515 211.902 17.0175C211.902 14.7803 213.716 12.9672 215.953 12.9672Z" fill="white"/>
<path d="M191.647 12.9672C193.883 12.9672 195.696 14.7803 195.696 17.0175C195.696 19.2515 193.883 21.0677 191.647 21.0677C189.41 21.0677 187.596 19.2515 187.596 17.0175C187.597 14.7803 189.41 12.9672 191.647 12.9672Z" fill="white"/>
<path d="M228.098 25.1142C230.336 25.1142 232.149 26.9273 232.149 29.1645C232.149 31.3991 230.336 33.2141 228.098 33.2141C225.862 33.2141 224.048 31.3991 224.048 29.1645C224.049 26.928 225.862 25.1142 228.098 25.1142Z" fill="white"/>
<path d="M179.5 25.1142C181.737 25.1142 183.55 26.9273 183.55 29.1645C183.55 31.3991 181.737 33.2141 179.5 33.2141C177.263 33.2141 175.45 31.3991 175.45 29.1645C175.45 26.928 177.263 25.1142 179.5 25.1142Z" fill="white"/>
<path d="M159.09 17.0175C159.09 14.7806 157.276 12.9672 155.039 12.9672C152.803 12.9672 150.989 14.7806 150.989 17.0175C150.989 19.2544 152.803 21.0677 155.039 21.0677C157.276 21.0677 159.09 19.2544 159.09 17.0175Z" fill="white"/>
<path d="M167.193 25.1142C169.429 25.1142 171.243 26.9273 171.243 29.1645C171.243 31.3991 169.429 33.2141 167.193 33.2141C164.956 33.2141 163.142 31.3991 163.142 29.1645C163.142 26.928 164.956 25.1142 167.193 25.1142Z" fill="white"/>
<path d="M142.887 25.1142C145.123 25.1142 146.936 26.9273 146.936 29.1645C146.936 31.3991 145.123 33.2141 142.887 33.2141C140.65 33.2141 138.836 31.3991 138.836 29.1645C138.837 26.928 140.65 25.1142 142.887 25.1142Z" fill="white"/>
<path d="M179.338 37.2669C181.576 37.2669 183.389 39.0801 183.389 41.3172C183.389 43.5518 181.576 45.3668 179.338 45.3668C177.102 45.3668 175.288 43.5518 175.288 41.3172C175.289 39.0801 177.102 37.2669 179.338 37.2669Z" fill="white"/>
<path d="M130.74 37.2669C132.977 37.2669 134.79 39.0801 134.79 41.3172C134.79 43.5518 132.977 45.3668 130.74 45.3668C128.504 45.3668 126.69 43.5518 126.69 41.3172C126.69 39.0801 128.503 37.2669 130.74 37.2669Z" fill="white"/>
<path d="M159.09 4.86477C159.09 2.62787 157.276 0.814499 155.039 0.814499C152.803 0.814499 150.989 2.62787 150.989 4.86477C150.989 7.10167 152.803 8.91504 155.039 8.91504C157.276 8.91504 159.09 7.10167 159.09 4.86477Z" fill="white"/>
<path d="M167.193 12.9672C169.429 12.9672 171.243 14.7803 171.243 17.0175C171.243 19.2515 169.429 21.0677 167.193 21.0677C164.956 21.0677 163.142 19.2515 163.142 17.0175C163.142 14.7803 164.956 12.9672 167.193 12.9672Z" fill="white"/>
<path d="M142.887 12.9672C145.123 12.9672 146.936 14.7803 146.936 17.0175C146.936 19.2515 145.123 21.0677 142.887 21.0677C140.65 21.0677 138.836 19.2515 138.836 17.0175C138.837 14.7803 140.65 12.9672 142.887 12.9672Z" fill="white"/>
<path d="M179.338 25.1142C181.576 25.1142 183.389 26.9273 183.389 29.1645C183.389 31.3991 181.576 33.2141 179.338 33.2141C177.102 33.2141 175.288 31.3991 175.288 29.1645C175.289 26.928 177.102 25.1142 179.338 25.1142Z" fill="white"/>
<path d="M130.74 25.1142C132.977 25.1142 134.79 26.9273 134.79 29.1645C134.79 31.3991 132.977 33.2141 130.74 33.2141C128.503 33.2141 126.69 31.3991 126.69 29.1645C126.69 26.928 128.503 25.1142 130.74 25.1142Z" fill="white"/>
<path d="M110.4 17.0175C110.4 14.7806 108.586 12.9672 106.349 12.9672C104.113 12.9672 102.299 14.7806 102.299 17.0175C102.299 19.2544 104.113 21.0677 106.349 21.0677C108.586 21.0677 110.4 19.2544 110.4 17.0175Z" fill="white"/>
<path d="M118.503 25.1142C120.739 25.1142 122.553 26.9273 122.553 29.1645C122.553 31.3991 120.739 33.2141 118.503 33.2141C116.266 33.2141 114.452 31.3991 114.452 29.1645C114.452 26.928 116.266 25.1142 118.503 25.1142Z" fill="white"/>
<path d="M94.1967 25.1142C96.4332 25.1142 98.2463 26.9273 98.2463 29.1645C98.2463 31.3991 96.4332 33.2141 94.1967 33.2141C91.9602 33.2141 90.1464 31.3991 90.1464 29.1645C90.1471 26.928 91.9602 25.1142 94.1967 25.1142Z" fill="white"/>
<path d="M130.648 37.2669C132.886 37.2669 134.699 39.0801 134.699 41.3172C134.699 43.5518 132.886 45.3668 130.648 45.3668C128.412 45.3668 126.598 43.5518 126.598 41.3172C126.599 39.0801 128.412 37.2669 130.648 37.2669Z" fill="white"/>
<path d="M82.0503 37.2669C84.2868 37.2669 86.0999 39.0801 86.0999 41.3172C86.0999 43.5518 84.2868 45.3668 82.0503 45.3668C79.8138 45.3668 78 43.5518 78 41.3172C78 39.0801 79.8131 37.2669 82.0503 37.2669Z" fill="white"/>
<path d="M110.4 4.86477C110.4 2.62787 108.586 0.814499 106.349 0.814499C104.113 0.814499 102.299 2.62787 102.299 4.86477C102.299 7.10167 104.113 8.91504 106.349 8.91504C108.586 8.91504 110.4 7.10167 110.4 4.86477Z" fill="white"/>
<path d="M118.503 12.9672C120.739 12.9672 122.553 14.7803 122.553 17.0175C122.553 19.2515 120.739 21.0677 118.503 21.0677C116.266 21.0677 114.452 19.2515 114.452 17.0175C114.452 14.7803 116.266 12.9672 118.503 12.9672Z" fill="white"/>
<path d="M94.1967 12.9672C96.4332 12.9672 98.2463 14.7803 98.2463 17.0175C98.2463 19.2515 96.4332 21.0677 94.1967 21.0677C91.9602 21.0677 90.1464 19.2515 90.1464 17.0175C90.1471 14.7803 91.9602 12.9672 94.1967 12.9672Z" fill="white"/>
<path d="M130.648 25.1142C132.886 25.1142 134.699 26.9273 134.699 29.1645C134.699 31.3991 132.886 33.2141 130.648 33.2141C128.412 33.2141 126.598 31.3991 126.598 29.1645C126.599 26.928 128.412 25.1142 130.648 25.1142Z" fill="white"/>
<path d="M82.0503 25.1142C84.2868 25.1142 86.0999 26.9273 86.0999 29.1645C86.0999 31.3991 84.2868 33.2141 82.0503 33.2141C79.8131 33.2141 78 31.3991 78 29.1645C78 26.928 79.8131 25.1142 82.0503 25.1142Z" fill="white"/>
<path d="M4.2607 86.804C4.2607 89.3174 5.03071 91.2907 6.57071 92.724C8.10404 94.1574 10.3174 94.9174 13.2107 95.004V78.834C10.3174 78.9207 8.10404 79.644 6.57071 81.004C5.03071 82.364 4.2607 84.2974 4.2607 86.804ZM25.4407 86.804C25.4407 84.2974 24.6707 82.364 23.1307 81.004C21.5974 79.644 19.384 78.9207 16.4907 78.834V95.004C19.384 94.9174 21.5974 94.1574 23.1307 92.724C24.6707 91.2907 25.4407 89.3174 25.4407 86.804ZM16.4907 102.004H13.2107V97.834C9.25071 97.6874 6.1807 96.6707 4.0007 94.784C1.81404 92.8907 0.720703 90.2307 0.720703 86.804C0.720703 83.4107 1.81404 80.7907 4.0007 78.944C6.1807 77.0974 9.25071 76.114 13.2107 75.994V71.874H16.4907V75.994C20.444 76.114 23.514 77.0974 25.7007 78.944C27.8874 80.7907 28.9807 83.4107 28.9807 86.804C28.9807 90.2307 27.8874 92.8907 25.7007 94.784C23.514 96.6707 20.444 97.6874 16.4907 97.834V102.004Z" fill="white"/>
<path d="M35.3607 102.004C34.8874 102.004 34.4607 101.974 34.0807 101.914C33.6941 101.854 33.2941 101.751 32.8807 101.604L33.6307 98.194C34.0774 98.3673 34.4907 98.454 34.8707 98.454C35.2574 98.454 35.6207 98.374 35.9607 98.214C36.3007 98.054 36.6407 97.7007 36.9807 97.154C37.3207 96.6073 37.6441 95.8173 37.9507 94.784C38.2641 93.7507 38.5974 92.3773 38.9507 90.664C39.5374 87.6173 40.0974 84.6173 40.6307 81.664C41.1641 78.7107 41.7107 75.6273 42.2707 72.414H56.8007V101.474H53.1207V75.514H45.1507C44.6774 78.2007 44.2274 80.814 43.8007 83.354C43.3741 85.894 42.9074 88.464 42.4007 91.064C41.9874 93.2773 41.5541 95.0907 41.1007 96.504C40.6407 97.924 40.1307 99.0407 39.5707 99.854C39.0107 100.667 38.3907 101.227 37.7107 101.534C37.0307 101.847 36.2474 102.004 35.3607 102.004Z" fill="white"/>
<path d="M73.3307 85.214L71.9507 89.644H80.6807L79.3107 85.214C78.7774 83.5873 78.274 81.9707 77.8007 80.364C77.3274 78.7507 76.854 77.104 76.3807 75.424H76.2007C75.7607 77.104 75.304 78.7507 74.8307 80.364C74.3574 81.9707 73.8574 83.5873 73.3307 85.214ZM68.2307 101.474H64.4707L74.3007 72.414H78.4607L88.3007 101.474H84.3607L81.6107 92.614H71.0207L68.2307 101.474Z" fill="white"/>
<path d="M99.2807 101.474H95.9607V72.414H100.391L105.971 87.914C106.331 88.9207 106.681 89.934 107.021 90.954C107.354 91.9673 107.701 92.9773 108.061 93.984H108.231C108.591 92.9773 108.924 91.9673 109.231 90.954C109.544 89.934 109.877 88.9207 110.231 87.914L115.721 72.414H120.191V101.474H116.741V85.474C116.741 84.174 116.801 82.744 116.921 81.184C117.034 79.6173 117.137 78.184 117.231 76.884H117.051L114.751 83.484L109.251 98.544H106.821L101.321 83.484L99.0207 76.884H98.8407C98.9274 78.184 99.024 79.6173 99.1307 81.184C99.2307 82.744 99.2807 84.174 99.2807 85.474V101.474Z" fill="white"/>
<path d="M148.901 101.474H131.711V72.414H148.461V75.514H135.391V84.634H146.421V87.784H135.391V98.324H148.901V101.474Z" fill="white"/>
<path d="M162.281 101.474H158.601V72.414H162.281V84.684H167.291L171.361 77.284C171.981 76.1907 172.541 75.2907 173.041 74.584C173.547 73.8707 174.057 73.3174 174.571 72.924C175.091 72.524 175.617 72.2507 176.151 72.104C176.677 71.9507 177.267 71.874 177.921 71.874C178.187 71.874 178.461 71.8974 178.741 71.944C179.021 71.9907 179.277 72.0574 179.511 72.144L178.891 75.604C178.717 75.544 178.534 75.4974 178.341 75.464C178.147 75.4374 177.977 75.424 177.831 75.424C177.504 75.424 177.207 75.4674 176.941 75.554C176.674 75.6407 176.401 75.8174 176.121 76.084C175.841 76.3507 175.541 76.7207 175.221 77.194C174.894 77.6674 174.507 78.3007 174.061 79.094L170.211 85.964L180.221 101.474H176.191L167.241 87.694H162.281V101.474Z" fill="white"/>
<path d="M198.381 102.004C196.554 102.004 194.871 101.664 193.331 100.984C191.797 100.304 190.461 99.3207 189.321 98.034C188.187 96.754 187.304 95.174 186.671 93.294C186.031 91.4207 185.711 89.304 185.711 86.944C185.711 84.6107 186.037 82.514 186.691 80.654C187.337 78.7874 188.237 77.2074 189.391 75.914C190.544 74.614 191.904 73.6174 193.471 72.924C195.031 72.224 196.744 71.874 198.611 71.874C200.377 71.874 201.934 72.2374 203.281 72.964C204.621 73.684 205.721 74.5174 206.581 75.464L204.591 77.854C203.817 77.0274 202.944 76.364 201.971 75.864C200.997 75.364 199.891 75.114 198.651 75.114C197.264 75.114 196.007 75.3874 194.881 75.934C193.761 76.4807 192.801 77.264 192.001 78.284C191.207 79.2974 190.597 80.5274 190.171 81.974C189.737 83.4274 189.521 85.054 189.521 86.854C189.521 88.6807 189.737 90.3274 190.171 91.794C190.597 93.254 191.194 94.5007 191.961 95.534C192.727 96.5674 193.664 97.364 194.771 97.924C195.877 98.484 197.127 98.764 198.521 98.764C199.934 98.764 201.174 98.4774 202.241 97.904C203.301 97.3307 204.304 96.5274 205.251 95.494L207.291 97.794C206.137 99.1207 204.837 100.154 203.391 100.894C201.944 101.634 200.274 102.004 198.381 102.004Z" fill="white"/>
<path d="M239.631 102.004C237.797 102.004 236.114 101.664 234.581 100.984C233.041 100.304 231.704 99.3207 230.571 98.034C229.431 96.754 228.544 95.174 227.911 93.294C227.277 91.4207 226.961 89.304 226.961 86.944C226.961 84.6107 227.284 82.514 227.931 80.654C228.584 78.7874 229.484 77.2074 230.631 75.914C231.784 74.614 233.144 73.6174 234.711 72.924C236.277 72.224 237.991 71.874 239.851 71.874C241.624 71.874 243.181 72.2374 244.521 72.964C245.867 73.684 246.967 74.5174 247.821 75.464L245.831 77.854C245.064 77.0274 244.194 76.364 243.221 75.864C242.241 75.364 241.131 75.114 239.891 75.114C238.504 75.114 237.251 75.3874 236.131 75.934C235.004 76.4807 234.044 77.264 233.251 78.284C232.451 79.2974 231.837 80.5274 231.411 81.974C230.984 83.4274 230.771 85.054 230.771 86.854C230.771 88.6807 230.984 90.3274 231.411 91.794C231.837 93.254 232.434 94.5007 233.201 95.534C233.974 96.5674 234.914 97.364 236.021 97.924C237.127 98.484 238.374 98.764 239.761 98.764C241.181 98.764 242.421 98.4774 243.481 97.904C244.547 97.3307 245.551 96.5274 246.491 95.494L248.531 97.794C247.377 99.1207 246.077 100.154 244.631 100.894C243.184 101.634 241.517 102.004 239.631 102.004Z" fill="white"/>
<path d="M261.161 101.474H257.481V72.414H278.081V101.474H274.401V75.514H261.161V101.474Z" fill="white"/>
<path d="M299.031 101.474H289.601V72.414H307.541V75.514H293.271V84.634H298.861C300.394 84.634 301.811 84.784 303.111 85.084C304.411 85.3773 305.534 85.8407 306.481 86.474C307.421 87.1073 308.157 87.934 308.691 88.954C309.224 89.974 309.491 91.2073 309.491 92.654C309.491 95.694 308.544 97.924 306.651 99.344C304.764 100.764 302.224 101.474 299.031 101.474ZM293.271 87.474V98.544H298.411C300.924 98.544 302.794 98.0807 304.021 97.154C305.247 96.2207 305.861 94.7507 305.861 92.744C305.861 90.884 305.231 89.5407 303.971 88.714C302.717 87.8873 300.834 87.474 298.321 87.474H293.271Z" fill="white"/>
</svg>
