<svg width="58" height="46" viewBox="0 0 58 46" fill="none" xmlns="http://www.w3.org/2000/svg">
<path d="M32.8496 17.0174C32.8496 14.7805 31.0363 12.9671 28.7994 12.9671C26.5625 12.9671 24.7491 14.7805 24.7491 17.0174C24.7491 19.2543 26.5625 21.0677 28.7994 21.0677C31.0363 21.0677 32.8496 19.2543 32.8496 17.0174Z" fill="white"/>
<path d="M40.9526 25.1142C43.1891 25.1142 45.0029 26.9273 45.0029 29.1645C45.0029 31.3991 43.1891 33.2141 40.9526 33.2141C38.7155 33.2141 36.9017 31.3991 36.9017 29.1645C36.9017 26.928 38.7155 25.1142 40.9526 25.1142Z" fill="white"/>
<path d="M16.6466 25.1142C18.8831 25.1142 20.6963 26.9273 20.6963 29.1645C20.6963 31.3991 18.8831 33.2141 16.6466 33.2141C14.4101 33.2141 12.5964 31.3991 12.5964 29.1645C12.597 26.928 14.4101 25.1142 16.6466 25.1142Z" fill="white"/>
<path d="M53.0984 37.2669C55.3356 37.2669 57.1487 39.08 57.1487 41.3172C57.1487 43.5518 55.3356 45.3668 53.0984 45.3668C50.8619 45.3668 49.0482 43.5518 49.0482 41.3172C49.0488 39.08 50.8619 37.2669 53.0984 37.2669Z" fill="white"/>
<path d="M4.50022 37.2669C6.73672 37.2669 8.54986 39.08 8.54986 41.3172C8.54986 43.5518 6.73672 45.3668 4.50022 45.3668C2.26372 45.3668 0.449951 43.5518 0.449951 41.3172C0.449951 39.08 2.26309 37.2669 4.50022 37.2669Z" fill="white"/>
<path d="M32.8496 4.86471C32.8496 2.62781 31.0363 0.814438 28.7994 0.814438C26.5625 0.814438 24.7491 2.62781 24.7491 4.86471C24.7491 7.10161 26.5625 8.91498 28.7994 8.91498C31.0363 8.91498 32.8496 7.10161 32.8496 4.86471Z" fill="white"/>
<path d="M40.9526 12.9671C43.1891 12.9671 45.0029 14.7803 45.0029 17.0174C45.0029 19.2514 43.1891 21.0677 40.9526 21.0677C38.7155 21.0677 36.9017 19.2514 36.9017 17.0174C36.9017 14.7803 38.7155 12.9671 40.9526 12.9671Z" fill="white"/>
<path d="M16.6466 12.9671C18.8831 12.9671 20.6963 14.7803 20.6963 17.0174C20.6963 19.2514 18.8831 21.0677 16.6466 21.0677C14.4101 21.0677 12.5964 19.2514 12.5964 17.0174C12.597 14.7803 14.4101 12.9671 16.6466 12.9671Z" fill="white"/>
<path d="M53.0984 25.1142C55.3356 25.1142 57.1487 26.9273 57.1487 29.1645C57.1487 31.3991 55.3356 33.2141 53.0984 33.2141C50.8619 33.2141 49.0482 31.3991 49.0482 29.1645C49.0488 26.928 50.8619 25.1142 53.0984 25.1142Z" fill="white"/>
<path d="M4.50022 25.1142C6.73672 25.1142 8.54986 26.9273 8.54986 29.1645C8.54986 31.3991 6.73672 33.2141 4.50022 33.2141C2.26309 33.2141 0.449951 31.3991 0.449951 29.1645C0.449951 26.928 2.26309 25.1142 4.50022 25.1142Z" fill="white"/>
</svg>
